<svg width="36" height="25" viewBox="0 0 36 25" fill="none" xmlns="http://www.w3.org/2000/svg">
<path fill-rule="evenodd" clip-rule="evenodd" d="M11.1358 6.43705C10.5669 8.66593 8.54567 10.314 6.13957 10.314C3.2919 10.314 0.983398 8.00551 0.983398 5.15783C0.983398 2.31016 3.2919 0.00166321 6.13957 0.00166321C8.54567 0.00166321 10.5669 1.64974 11.1358 3.87862C11.1882 3.87213 11.2416 3.86879 11.2957 3.86879L33.6392 3.86879C34.3511 3.86879 34.9282 4.44591 34.9282 5.15783C34.9282 5.86975 34.3511 6.44688 33.6392 6.44688L11.2957 6.44688C11.2416 6.44688 11.1882 6.44354 11.1358 6.43705ZM8.71766 5.15783C8.71766 6.58167 7.56341 7.73592 6.13957 7.73592C4.71573 7.73592 3.56148 6.58167 3.56148 5.15783C3.56148 3.734 4.71573 2.57975 6.13957 2.57975C7.56341 2.57975 8.71766 3.734 8.71766 5.15783Z" fill="white"/>
<path fill-rule="evenodd" clip-rule="evenodd" d="M35.3579 18.9076C35.3579 21.7553 33.0494 24.0638 30.2017 24.0638C27.7956 24.0638 25.7744 22.4157 25.2055 20.1868C25.1531 20.1933 25.0997 20.1967 25.0455 20.1967L2.70212 20.1967C1.9902 20.1967 1.41308 19.6195 1.41308 18.9076C1.41308 18.1957 1.9902 17.6186 2.70212 17.6186L25.0455 17.6186C25.0997 17.6186 25.1531 17.6219 25.2055 17.6284C25.7744 15.3995 27.7956 13.7515 30.2017 13.7515C33.0494 13.7515 35.3579 16.06 35.3579 18.9076ZM32.7798 18.9076C32.7798 20.3315 31.6255 21.4857 30.2017 21.4857C28.7779 21.4857 27.6236 20.3315 27.6236 18.9076C27.6236 17.4838 28.7779 16.3295 30.2017 16.3295C31.6255 16.3295 32.7798 17.4838 32.7798 18.9076Z" fill="white"/>
</svg>
