<svg width="34" height="31" viewBox="0 0 34 31" fill="none" xmlns="http://www.w3.org/2000/svg">
<path d="M3.04428 15.2267C2.54088 14.7233 1.7247 14.7233 1.2213 15.2267C0.717899 15.7302 0.717899 16.5463 1.2213 17.0497L7.23683 23.0653C7.74024 23.5687 8.55641 23.5687 9.05982 23.0653C9.56322 22.5619 9.56322 21.7457 9.05982 21.2423L3.04428 15.2267Z" fill="white"/>
<path fill-rule="evenodd" clip-rule="evenodd" d="M26.6768 6.30785C27.1686 5.81608 27.1814 5.0226 26.706 4.51497L26.7029 4.51174L26.6966 4.50501L26.6749 4.48213C26.6565 4.4628 26.6303 4.43547 26.597 4.40105C26.5303 4.33226 26.4348 4.23493 26.3152 4.11655C26.0766 3.88039 25.7393 3.55728 25.3426 3.2081C24.5791 2.5361 23.4845 1.66726 22.4071 1.20426C21.5985 0.856766 20.6539 0.753495 19.7896 0.746479C18.9048 0.739298 17.9918 0.833313 17.1845 0.955119C16.373 1.07755 15.642 1.23216 15.1149 1.3557C14.8505 1.41766 14.6354 1.47227 14.4848 1.51187C14.4094 1.53168 14.35 1.54776 14.3085 1.55917L14.2599 1.57267L14.246 1.57657L14.2418 1.57777L14.2394 1.57846C14.0288 1.63865 13.837 1.75151 13.6821 1.90639L4.22906 11.3595C3.72567 11.8629 3.72567 12.6791 4.22907 13.1825L11.104 20.0574C11.6074 20.5608 12.4235 20.5608 12.9269 20.0574L15.0233 17.9611L26.1429 29.0807C27.8328 30.7707 30.5727 30.7707 32.2627 29.0807C33.9526 27.3908 33.9526 24.6509 32.2627 22.9609L21.1431 11.8414L26.6768 6.30785ZM6.96354 12.271L15.2604 3.97411C15.3794 3.94368 15.5289 3.90662 15.7032 3.86577C16.1835 3.7532 16.8441 3.61374 17.5691 3.50435C18.2982 3.39434 19.0665 3.31878 19.7686 3.32448C20.4912 3.33035 21.0391 3.42241 21.3893 3.5729C22.0696 3.86528 22.9087 4.50032 23.6393 5.14336C23.7415 5.23334 23.8394 5.32152 23.9322 5.4065L12.0155 17.323L6.96354 12.271ZM16.8463 16.1382L19.3201 13.6643L30.4397 24.7839C31.1228 25.467 31.1228 26.5746 30.4397 27.2577C29.7566 27.9409 28.649 27.9409 27.9659 27.2577L16.8463 16.1382Z" fill="white"/>
</svg>
