<svg width="42" height="43" viewBox="0 0 42 43" fill="none" xmlns="http://www.w3.org/2000/svg">
<path d="M29.3867 17.714C29.8901 17.2106 29.8901 16.3944 29.3867 15.891C28.8833 15.3876 28.0671 15.3876 27.5637 15.891L19.0222 24.4325L14.7776 20.1878C14.2741 19.6844 13.458 19.6844 12.9546 20.1878C12.4512 20.6912 12.4512 21.5074 12.9546 22.0108L18.1107 27.167C18.6141 27.6704 19.4303 27.6704 19.9337 27.167L29.3867 17.714Z" fill="white"/>
<path fill-rule="evenodd" clip-rule="evenodd" d="M38.3579 21.529C38.3579 31.0212 30.6629 38.7162 21.1706 38.7162C11.6784 38.7162 3.9834 31.0212 3.9834 21.529C3.9834 12.0367 11.6784 4.34174 21.1706 4.34174C30.6629 4.34174 38.3579 12.0367 38.3579 21.529ZM35.7798 21.529C35.7798 29.5974 29.2391 36.1381 21.1706 36.1381C13.1022 36.1381 6.56148 29.5974 6.56148 21.529C6.56148 13.4606 13.1022 6.91982 21.1706 6.91982C29.2391 6.91982 35.7798 13.4606 35.7798 21.529Z" fill="white"/>
</svg>
