<svg width="401" height="401" viewBox="0 0 401 401" fill="none" xmlns="http://www.w3.org/2000/svg">
<g clip-path="url(#clip0_2083_266)">
<path d="M200.5 379.518C204.454 379.518 207.66 376.312 207.66 372.357C207.66 368.402 204.454 365.196 200.5 365.196C196.545 365.196 193.339 368.402 193.339 372.357C193.339 376.312 196.545 379.518 200.5 379.518Z" fill="#DD635A" fill-opacity="0.25"/>
<path d="M200.5 207.661C204.454 207.661 207.66 204.455 207.66 200.5C207.66 196.545 204.454 193.339 200.5 193.339C196.545 193.339 193.339 196.545 193.339 200.5C193.339 204.455 196.545 207.661 200.5 207.661Z" fill="#DD635A" fill-opacity="0.25"/>
<path d="M28.6426 121.732C32.5974 121.732 35.8034 118.526 35.8034 114.571C35.8034 110.617 32.5974 107.411 28.6426 107.411C24.6879 107.411 21.4819 110.617 21.4819 114.571C21.4819 118.526 24.6879 121.732 28.6426 121.732Z" fill="#DD635A" fill-opacity="0.25"/>
<path d="M85.9283 121.732C89.883 121.732 93.089 118.526 93.089 114.571C93.089 110.617 89.883 107.411 85.9283 107.411C81.9735 107.411 78.7676 110.617 78.7676 114.571C78.7676 118.526 81.9735 121.732 85.9283 121.732Z" fill="#DD635A" fill-opacity="0.25"/>
<path d="M200.5 64.4464C204.454 64.4464 207.66 61.2405 207.66 57.2857C207.66 53.331 204.454 50.125 200.5 50.125C196.545 50.125 193.339 53.331 193.339 57.2857C193.339 61.2405 196.545 64.4464 200.5 64.4464Z" fill="#DD635A" fill-opacity="0.25"/>
<path d="M315.071 121.732C319.026 121.732 322.232 118.526 322.232 114.571C322.232 110.617 319.026 107.411 315.071 107.411C311.117 107.411 307.911 110.617 307.911 114.571C307.911 118.526 311.117 121.732 315.071 121.732Z" fill="#DD635A" fill-opacity="0.25"/>
<path d="M200.5 179.018C204.454 179.018 207.66 175.812 207.66 171.857C207.66 167.902 204.454 164.696 200.5 164.696C196.545 164.696 193.339 167.902 193.339 171.857C193.339 175.812 196.545 179.018 200.5 179.018Z" fill="#DD635A" fill-opacity="0.25"/>
<path d="M200.5 121.732C204.454 121.732 207.66 118.526 207.66 114.571C207.66 110.617 204.454 107.411 200.5 107.411C196.545 107.411 193.339 110.617 193.339 114.571C193.339 118.526 196.545 121.732 200.5 121.732Z" fill="#DD635A" fill-opacity="0.25"/>
<path d="M28.6426 293.589C32.5974 293.589 35.8034 290.383 35.8034 286.429C35.8034 282.474 32.5974 279.268 28.6426 279.268C24.6879 279.268 21.4819 282.474 21.4819 286.429C21.4819 290.383 24.6879 293.589 28.6426 293.589Z" fill="#DD635A" fill-opacity="0.25"/>
<path d="M372.357 293.589C376.312 293.589 379.518 290.383 379.518 286.429C379.518 282.474 376.312 279.268 372.357 279.268C368.402 279.268 365.196 282.474 365.196 286.429C365.196 290.383 368.402 293.589 372.357 293.589Z" fill="#DD635A" fill-opacity="0.25"/>
<path d="M372.357 121.732C376.312 121.732 379.518 118.526 379.518 114.571C379.518 110.617 376.312 107.411 372.357 107.411C368.402 107.411 365.196 110.617 365.196 114.571C365.196 118.526 368.402 121.732 372.357 121.732Z" fill="#DD635A" fill-opacity="0.25"/>
<path d="M200.5 35.8036C204.454 35.8036 207.66 32.5976 207.66 28.6429C207.66 24.6881 204.454 21.4822 200.5 21.4822C196.545 21.4822 193.339 24.6881 193.339 28.6429C193.339 32.5976 196.545 35.8036 200.5 35.8036Z" fill="#DD635A" fill-opacity="0.25"/>
<path d="M28.6431 114.571L200.5 28.6428L372.357 114.571L200.5 200.5L28.6431 114.571Z" stroke="#DD635A" stroke-opacity="0.25" stroke-linecap="round" stroke-linejoin="round"/>
<path d="M28.6431 114.571V286.429L200.5 372.357V200.5L28.6431 114.571Z" stroke="#DD635A" stroke-opacity="0.25" stroke-linecap="round" stroke-linejoin="round"/>
<path d="M200.5 57.2858L85.9287 114.571L200.5 171.857L315.072 114.571L200.5 57.2858Z" stroke="#DD635A" stroke-opacity="0.25" stroke-linecap="round" stroke-linejoin="round"/>
<path d="M200.5 57.2858V114.571" stroke="#DD635A" stroke-opacity="0.25" stroke-linecap="round" stroke-linejoin="round"/>
<path d="M200.5 114.571L143.214 143.214" stroke="#DD635A" stroke-opacity="0.25" stroke-linecap="round" stroke-linejoin="round"/>
<path d="M200.5 114.571L257.786 143.214" stroke="#DD635A" stroke-opacity="0.25" stroke-linecap="round" stroke-linejoin="round"/>
<circle cx="85.9284" cy="114.571" r="1.79018" fill="#DD635A" fill-opacity="0.25"/>
<path d="M85.9282 121.732V168.277" stroke="#DD635A" stroke-opacity="0.25" stroke-linecap="round" stroke-linejoin="round"/>
<circle cx="85.9284" cy="171.857" r="1.79018" fill="#DD635A" fill-opacity="0.25"/>
<circle cx="85.9284" cy="171.857" r="1.79018" fill="#DD635A" fill-opacity="0.25"/>
<path d="M92.3013 175.044L197.313 227.567" stroke="#DD635A" stroke-opacity="0.25" stroke-linecap="round" stroke-linejoin="round"/>
<circle cx="200.5" cy="229.143" r="1.79018" fill="#DD635A" fill-opacity="0.25"/>
<circle cx="200.5" cy="229.143" r="1.79018" fill="#DD635A" fill-opacity="0.25"/>
<path d="M200.5 221.982V175.438" stroke="#DD635A" stroke-opacity="0.25" stroke-linecap="round" stroke-linejoin="round"/>
<circle cx="200.5" cy="171.857" r="1.79018" fill="#DD635A" fill-opacity="0.25"/>
<circle cx="315.071" cy="114.571" r="1.79018" fill="#DD635A" fill-opacity="0.25"/>
<path d="M315.071 121.732V168.277" stroke="#DD635A" stroke-opacity="0.25" stroke-linecap="round" stroke-linejoin="round"/>
<circle cx="315.071" cy="171.857" r="1.79018" fill="#DD635A" fill-opacity="0.25"/>
<circle cx="200.5" cy="229.143" r="1.79018" fill="#DD635A" fill-opacity="0.25"/>
<path d="M206.873 225.956L311.885 173.432" stroke="#DD635A" stroke-opacity="0.25" stroke-linecap="round" stroke-linejoin="round"/>
<circle cx="315.071" cy="171.857" r="1.79018" fill="#DD635A" fill-opacity="0.25"/>
<circle cx="257.786" cy="143.214" r="1.79018" fill="#DD635A" fill-opacity="0.25"/>
<path d="M264.159 146.401L311.885 170.282" stroke="#DD635A" stroke-opacity="0.25" stroke-linecap="round" stroke-linejoin="round"/>
<circle cx="315.071" cy="171.857" r="1.79018" fill="#DD635A" fill-opacity="0.25"/>
<circle cx="85.9284" cy="171.857" r="1.79018" fill="#DD635A" fill-opacity="0.25"/>
<path d="M92.3013 168.671L140.027 144.79" stroke="#DD635A" stroke-opacity="0.25" stroke-linecap="round" stroke-linejoin="round"/>
<circle cx="143.214" cy="143.214" r="1.79018" fill="#DD635A" fill-opacity="0.25"/>
<path d="M372.357 114.571V286.429L200.5 372.357V200.5L372.357 114.571Z" stroke="#DD635A" stroke-opacity="0.25" stroke-linecap="round" stroke-linejoin="round"/>
</g>
<defs>
<clipPath id="clip0_2083_266">
<rect width="401" height="401" fill="white"/>
</clipPath>
</defs>
</svg>
