<svg width="330" height="659" viewBox="0 0 330 659" fill="none" xmlns="http://www.w3.org/2000/svg">
<g clip-path="url(#clip0_2083_339)">
<path d="M165 640.694V567.472L311.667 494.25V567.472L165 640.694Z" stroke="#DD635A" stroke-opacity="0.25" stroke-linecap="round" stroke-linejoin="round"/>
<path d="M165 640.694L18.3335 567.472V494.25L165 567.472V640.694Z" stroke="#DD635A" stroke-opacity="0.25" stroke-linecap="round" stroke-linejoin="round"/>
<path d="M18.3335 494.25L165 421.028L311.667 494.25L165 567.472L18.3335 494.25Z" stroke="#DD635A" stroke-opacity="0.25" stroke-linecap="round" stroke-linejoin="round"/>
<path d="M165 530.861V457.639L311.667 384.417V457.639L165 530.861Z" stroke="#DD635A" stroke-opacity="0.25" stroke-linecap="round" stroke-linejoin="round"/>
<path d="M165 530.861L18.3335 457.639V384.417L165 457.639V530.861Z" stroke="#DD635A" stroke-opacity="0.25" stroke-linecap="round" stroke-linejoin="round"/>
<path d="M18.3335 384.417L165 311.194L311.667 384.417L165 457.639L18.3335 384.417Z" stroke="#DD635A" stroke-opacity="0.25" stroke-linecap="round" stroke-linejoin="round"/>
<path d="M91.6665 384.417L165 421.028V91.5277L91.6665 54.9166V384.417Z" stroke="#DD635A" stroke-opacity="0.25" stroke-linecap="round" stroke-linejoin="round"/>
<path d="M165 421.028L238.333 384.417V54.9166L165 91.5277V421.028Z" stroke="#DD635A" stroke-opacity="0.25" stroke-linecap="round" stroke-linejoin="round"/>
<path d="M91.6665 54.9167L165 18.3055L238.333 54.9167L165 91.5278L91.6665 54.9167Z" stroke="#DD635A" stroke-opacity="0.25" stroke-linecap="round" stroke-linejoin="round"/>
<path d="M165 36.6111L128.333 54.9166L165 73.2222L201.667 54.9166L165 36.6111Z" stroke="#DD635A" stroke-opacity="0.25" stroke-linecap="round" stroke-linejoin="round"/>
<path d="M165 36.6111V73.2222L128.333 54.9166L165 36.6111Z" stroke="#DD635A" stroke-opacity="0.25" stroke-linecap="round" stroke-linejoin="round"/>
<ellipse cx="91.6668" cy="347.806" rx="1.14583" ry="1.1441" fill="#DD635A" fill-opacity="0.25"/>
<path d="M95.7456 345.769L162.96 312.201" stroke="#DD635A" stroke-opacity="0.25" stroke-linecap="round" stroke-linejoin="round"/>
<ellipse cx="165" cy="311.194" rx="1.14583" ry="1.1441" fill="#DD635A" fill-opacity="0.25"/>
<ellipse cx="165" cy="311.194" rx="1.14583" ry="1.1441" fill="#DD635A" fill-opacity="0.25"/>
<path d="M169.079 313.231L236.294 346.799" stroke="#DD635A" stroke-opacity="0.25" stroke-linecap="round" stroke-linejoin="round"/>
<ellipse cx="238.333" cy="347.806" rx="1.14583" ry="1.1441" fill="#DD635A" fill-opacity="0.25"/>
<ellipse cx="18.3333" cy="457.639" rx="1.14583" ry="1.1441" fill="#DD635A" fill-opacity="0.25"/>
<path d="M22.4126 455.602L162.961 385.423" stroke="#DD635A" stroke-opacity="0.25" stroke-linecap="round" stroke-linejoin="round"/>
<ellipse cx="165" cy="384.417" rx="1.14583" ry="1.1441" fill="#DD635A" fill-opacity="0.25"/>
<ellipse cx="165" cy="384.417" rx="1.14583" ry="1.1441" fill="#DD635A" fill-opacity="0.25"/>
<path d="M169.079 386.453L309.627 456.632" stroke="#DD635A" stroke-opacity="0.25" stroke-linecap="round" stroke-linejoin="round"/>
<ellipse cx="311.667" cy="457.639" rx="1.14583" ry="1.1441" fill="#DD635A" fill-opacity="0.25"/>
<ellipse cx="91.6668" cy="384.417" rx="1.14583" ry="1.1441" fill="#DD635A" fill-opacity="0.25"/>
<path d="M95.7456 382.38L162.96 348.812" stroke="#DD635A" stroke-opacity="0.25" stroke-linecap="round" stroke-linejoin="round"/>
<ellipse cx="165" cy="347.806" rx="1.14583" ry="1.1441" fill="#DD635A" fill-opacity="0.25"/>
<ellipse cx="165" cy="347.806" rx="1.14583" ry="1.1441" fill="#DD635A" fill-opacity="0.25"/>
<path d="M169.079 349.842L236.294 383.41" stroke="#DD635A" stroke-opacity="0.25" stroke-linecap="round" stroke-linejoin="round"/>
<ellipse cx="238.333" cy="384.417" rx="1.14583" ry="1.1441" fill="#DD635A" fill-opacity="0.25"/>
<ellipse cx="128.333" cy="54.9167" rx="1.14583" ry="1.1441" fill="#DD635A" fill-opacity="0.25"/>
<path d="M128.333 59.493V125.851" stroke="#DD635A" stroke-opacity="0.25" stroke-linecap="round" stroke-linejoin="round"/>
<ellipse cx="128.333" cy="128.139" rx="1.14583" ry="1.1441" fill="#DD635A" fill-opacity="0.25"/>
<ellipse cx="201.667" cy="54.9167" rx="1.14583" ry="1.1441" fill="#DD635A" fill-opacity="0.25"/>
<path d="M201.667 59.493V125.851" stroke="#DD635A" stroke-opacity="0.25" stroke-linecap="round" stroke-linejoin="round"/>
<ellipse cx="201.667" cy="128.139" rx="1.14583" ry="1.1441" fill="#DD635A" fill-opacity="0.25"/>
<ellipse cx="201.667" cy="128.139" rx="1.14583" ry="1.1441" fill="#DD635A" fill-opacity="0.25"/>
<path d="M197.587 130.175L167.04 145.438" stroke="#DD635A" stroke-opacity="0.25" stroke-linecap="round" stroke-linejoin="round"/>
<ellipse cx="165" cy="146.444" rx="1.14583" ry="1.1441" fill="#DD635A" fill-opacity="0.25"/>
<ellipse cx="165" cy="146.444" rx="1.14583" ry="1.1441" fill="#DD635A" fill-opacity="0.25"/>
<path d="M160.921 144.408L130.373 129.146" stroke="#DD635A" stroke-opacity="0.25" stroke-linecap="round" stroke-linejoin="round"/>
<ellipse cx="128.333" cy="128.139" rx="1.14583" ry="1.1441" fill="#DD635A" fill-opacity="0.25"/>
<ellipse cx="128.333" cy="128.139" rx="1.14583" ry="1.1441" fill="#DD635A" fill-opacity="0.25"/>
<path d="M132.413 126.102L162.961 110.84" stroke="#DD635A" stroke-opacity="0.25" stroke-linecap="round" stroke-linejoin="round"/>
<ellipse cx="165" cy="109.833" rx="1.14583" ry="1.1441" fill="#DD635A" fill-opacity="0.25"/>
<ellipse cx="165" cy="109.833" rx="1.14583" ry="1.1441" fill="#DD635A" fill-opacity="0.25"/>
<path d="M169.079 111.87L199.627 127.132" stroke="#DD635A" stroke-opacity="0.25" stroke-linecap="round" stroke-linejoin="round"/>
<ellipse cx="201.667" cy="128.139" rx="1.14583" ry="1.1441" fill="#DD635A" fill-opacity="0.25"/>
<ellipse cx="54.9998" cy="475.944" rx="1.14583" ry="1.1441" fill="#DD635A" fill-opacity="0.25"/>
<path d="M59.0791 473.908L162.96 422.035" stroke="#DD635A" stroke-opacity="0.25" stroke-linecap="round" stroke-linejoin="round"/>
<ellipse cx="165" cy="421.028" rx="1.14583" ry="1.1441" fill="#DD635A" fill-opacity="0.25"/>
<ellipse cx="165" cy="421.028" rx="1.14583" ry="1.1441" fill="#DD635A" fill-opacity="0.25"/>
<path d="M169.079 423.064L272.96 474.938" stroke="#DD635A" stroke-opacity="0.25" stroke-linecap="round" stroke-linejoin="round"/>
<ellipse cx="275" cy="475.944" rx="1.14583" ry="1.1441" fill="#DD635A" fill-opacity="0.25"/>
<ellipse cx="311.667" cy="567.472" rx="1.14583" ry="1.1441" fill="#DD635A" fill-opacity="0.25"/>
<path d="M307.587 565.436L167.04 495.257" stroke="#DD635A" stroke-opacity="0.25" stroke-linecap="round" stroke-linejoin="round"/>
<ellipse cx="165" cy="494.25" rx="1.14583" ry="1.1441" fill="#DD635A" fill-opacity="0.25"/>
<ellipse cx="165" cy="494.25" rx="1.14583" ry="1.1441" fill="#DD635A" fill-opacity="0.25"/>
<path d="M165 489.674V423.316" stroke="#DD635A" stroke-opacity="0.25" stroke-linecap="round" stroke-linejoin="round"/>
<ellipse cx="165" cy="421.028" rx="1.14583" ry="1.1441" fill="#DD635A" fill-opacity="0.25"/>
<ellipse cx="165" cy="494.25" rx="1.14583" ry="1.1441" fill="#DD635A" fill-opacity="0.25"/>
<path d="M160.921 496.286L20.373 566.465" stroke="#DD635A" stroke-opacity="0.25" stroke-linecap="round" stroke-linejoin="round"/>
<ellipse cx="18.3333" cy="567.472" rx="1.14583" ry="1.1441" fill="#DD635A" fill-opacity="0.25"/>
<path d="M238.333 59.4931C240.865 59.4931 242.917 57.4442 242.917 54.9167C242.917 52.3893 240.865 50.3403 238.333 50.3403C235.802 50.3403 233.75 52.3893 233.75 54.9167C233.75 57.4442 235.802 59.4931 238.333 59.4931Z" fill="#DD635A" fill-opacity="0.25"/>
<path d="M165 77.7987C167.531 77.7987 169.583 75.7497 169.583 73.2223C169.583 70.6948 167.531 68.6459 165 68.6459C162.469 68.6459 160.417 70.6948 160.417 73.2223C160.417 75.7497 162.469 77.7987 165 77.7987Z" fill="#DD635A" fill-opacity="0.25"/>
<path d="M128.333 59.4931C130.865 59.4931 132.917 57.4442 132.917 54.9167C132.917 52.3893 130.865 50.3403 128.333 50.3403C125.802 50.3403 123.75 52.3893 123.75 54.9167C123.75 57.4442 125.802 59.4931 128.333 59.4931Z" fill="#DD635A" fill-opacity="0.25"/>
<path d="M165 41.1874C167.531 41.1874 169.583 39.1385 169.583 36.6111C169.583 34.0836 167.531 32.0347 165 32.0347C162.469 32.0347 160.417 34.0836 160.417 36.6111C160.417 39.1385 162.469 41.1874 165 41.1874Z" fill="#DD635A" fill-opacity="0.25"/>
<path d="M201.667 59.4931C204.198 59.4931 206.25 57.4442 206.25 54.9167C206.25 52.3893 204.198 50.3403 201.667 50.3403C199.136 50.3403 197.083 52.3893 197.083 54.9167C197.083 57.4442 199.136 59.4931 201.667 59.4931Z" fill="#DD635A" fill-opacity="0.25"/>
<path d="M165 22.8819C167.531 22.8819 169.583 20.833 169.583 18.3055C169.583 15.778 167.531 13.7291 165 13.7291C162.469 13.7291 160.417 15.778 160.417 18.3055C160.417 20.833 162.469 22.8819 165 22.8819Z" fill="#DD635A" fill-opacity="0.25"/>
<path d="M91.6668 59.4931C94.1981 59.4931 96.2502 57.4442 96.2502 54.9167C96.2502 52.3893 94.1981 50.3403 91.6668 50.3403C89.1355 50.3403 87.0835 52.3893 87.0835 54.9167C87.0835 57.4442 89.1355 59.4931 91.6668 59.4931Z" fill="#DD635A" fill-opacity="0.25"/>
<path d="M165 96.1042C167.531 96.1042 169.583 94.0553 169.583 91.5278C169.583 89.0003 167.531 86.9514 165 86.9514C162.469 86.9514 160.417 89.0003 160.417 91.5278C160.417 94.0553 162.469 96.1042 165 96.1042Z" fill="#DD635A" fill-opacity="0.25"/>
<path d="M165 425.604C167.531 425.604 169.583 423.555 169.583 421.028C169.583 418.5 167.531 416.451 165 416.451C162.469 416.451 160.417 418.5 160.417 421.028C160.417 423.555 162.469 425.604 165 425.604Z" fill="#DD635A" fill-opacity="0.25"/>
<path d="M91.6668 388.993C94.1981 388.993 96.2502 386.944 96.2502 384.417C96.2502 381.889 94.1981 379.84 91.6668 379.84C89.1355 379.84 87.0835 381.889 87.0835 384.417C87.0835 386.944 89.1355 388.993 91.6668 388.993Z" fill="#DD635A" fill-opacity="0.25"/>
<path d="M238.333 388.993C240.865 388.993 242.917 386.944 242.917 384.417C242.917 381.889 240.865 379.84 238.333 379.84C235.802 379.84 233.75 381.889 233.75 384.417C233.75 386.944 235.802 388.993 238.333 388.993Z" fill="#DD635A" fill-opacity="0.25"/>
<path d="M311.667 388.993C314.198 388.993 316.25 386.944 316.25 384.417C316.25 381.889 314.198 379.84 311.667 379.84C309.136 379.84 307.083 381.889 307.083 384.417C307.083 386.944 309.136 388.993 311.667 388.993Z" fill="#DD635A" fill-opacity="0.25"/>
<path d="M165 462.215C167.531 462.215 169.583 460.166 169.583 457.639C169.583 455.111 167.531 453.062 165 453.062C162.469 453.062 160.417 455.111 160.417 457.639C160.417 460.166 162.469 462.215 165 462.215Z" fill="#DD635A" fill-opacity="0.25"/>
<path d="M18.3333 388.993C20.8646 388.993 22.9167 386.944 22.9167 384.417C22.9167 381.889 20.8646 379.84 18.3333 379.84C15.802 379.84 13.75 381.889 13.75 384.417C13.75 386.944 15.802 388.993 18.3333 388.993Z" fill="#DD635A" fill-opacity="0.25"/>
<path d="M18.3333 462.215C20.8646 462.215 22.9167 460.166 22.9167 457.639C22.9167 455.111 20.8646 453.062 18.3333 453.062C15.802 453.062 13.75 455.111 13.75 457.639C13.75 460.166 15.802 462.215 18.3333 462.215Z" fill="#DD635A" fill-opacity="0.25"/>
<path d="M165 535.438C167.531 535.438 169.583 533.389 169.583 530.861C169.583 528.334 167.531 526.285 165 526.285C162.469 526.285 160.417 528.334 160.417 530.861C160.417 533.389 162.469 535.438 165 535.438Z" fill="#DD635A" fill-opacity="0.25"/>
<path d="M311.667 462.215C314.198 462.215 316.25 460.166 316.25 457.639C316.25 455.111 314.198 453.062 311.667 453.062C309.136 453.062 307.083 455.111 307.083 457.639C307.083 460.166 309.136 462.215 311.667 462.215Z" fill="#DD635A" fill-opacity="0.25"/>
<path d="M311.667 498.826C314.198 498.826 316.25 496.777 316.25 494.25C316.25 491.723 314.198 489.674 311.667 489.674C309.136 489.674 307.083 491.723 307.083 494.25C307.083 496.777 309.136 498.826 311.667 498.826Z" fill="#DD635A" fill-opacity="0.25"/>
<path d="M311.667 572.049C314.198 572.049 316.25 570 316.25 567.472C316.25 564.945 314.198 562.896 311.667 562.896C309.136 562.896 307.083 564.945 307.083 567.472C307.083 570 309.136 572.049 311.667 572.049Z" fill="#DD635A" fill-opacity="0.25"/>
<path d="M165 645.271C167.531 645.271 169.583 643.222 169.583 640.694C169.583 638.167 167.531 636.118 165 636.118C162.469 636.118 160.417 638.167 160.417 640.694C160.417 643.222 162.469 645.271 165 645.271Z" fill="#DD635A" fill-opacity="0.25"/>
<path d="M165 572.049C167.531 572.049 169.583 570 169.583 567.472C169.583 564.945 167.531 562.896 165 562.896C162.469 562.896 160.417 564.945 160.417 567.472C160.417 570 162.469 572.049 165 572.049Z" fill="#DD635A" fill-opacity="0.25"/>
<path d="M18.3333 498.826C20.8646 498.826 22.9167 496.777 22.9167 494.25C22.9167 491.723 20.8646 489.674 18.3333 489.674C15.802 489.674 13.75 491.723 13.75 494.25C13.75 496.777 15.802 498.826 18.3333 498.826Z" fill="#DD635A" fill-opacity="0.25"/>
<path d="M18.3333 572.049C20.8646 572.049 22.9167 570 22.9167 567.472C22.9167 564.945 20.8646 562.896 18.3333 562.896C15.802 562.896 13.75 564.945 13.75 567.472C13.75 570 15.802 572.049 18.3333 572.049Z" fill="#DD635A" fill-opacity="0.25"/>
</g>
<defs>
<clipPath id="clip0_2083_339">
<rect width="330" height="659" fill="white"/>
</clipPath>
</defs>
</svg>
