<svg width="405" height="486" viewBox="0 0 405 486" fill="none" xmlns="http://www.w3.org/2000/svg">
<g clip-path="url(#clip0_2083_449)">
<path d="M148.5 445.5L121.5 432L94.5 445.5L121.5 459L148.5 445.5Z" stroke="#DD635A" stroke-opacity="0.25" stroke-linecap="round" stroke-linejoin="round"/>
<path d="M121.5 364.5L175.5 337.5L121.5 310.5L67.5 337.5L121.5 364.5Z" stroke="#DD635A" stroke-opacity="0.25" stroke-linecap="round" stroke-linejoin="round"/>
<path d="M256.5 297L175.5 445.5L121.5 472.5V364.5L256.5 297Z" stroke="#DD635A" stroke-opacity="0.25" stroke-linecap="round" stroke-linejoin="round"/>
<circle cx="0.84375" cy="0.84375" r="0.84375" transform="matrix(-1 0 0 1 203.344 269.156)" fill="#DD635A" fill-opacity="0.25"/>
<path d="M200.88 272.97L122.31 417.015" stroke="#DD635A" stroke-opacity="0.25" stroke-linecap="round" stroke-linejoin="round"/>
<circle cx="0.84375" cy="0.84375" r="0.84375" transform="matrix(-1 0 0 1 122.344 417.656)" fill="#DD635A" fill-opacity="0.25"/>
<path d="M121.5 472.5L67.5 445.5V337.5L121.5 364.5V472.5Z" stroke="#DD635A" stroke-opacity="0.25" stroke-linecap="round" stroke-linejoin="round"/>
<path d="M283.5 175.5L391.5 229.5L121.5 364.5L13.5 310.5L283.5 175.5Z" stroke="#DD635A" stroke-opacity="0.25" stroke-linecap="round" stroke-linejoin="round"/>
<path d="M391.5 229.5V256.5L121.5 391.5V364.5L391.5 229.5Z" stroke="#DD635A" stroke-opacity="0.25" stroke-linecap="round" stroke-linejoin="round"/>
<path d="M121.5 391.5L13.5 337.5V310.5L121.5 364.5V391.5Z" stroke="#DD635A" stroke-opacity="0.25" stroke-linecap="round" stroke-linejoin="round"/>
<path d="M283.5 135L391.5 189L121.5 324L13.5 270L283.5 135Z" stroke="#DD635A" stroke-opacity="0.25" stroke-linecap="round" stroke-linejoin="round"/>
<path d="M391.5 189V216L121.5 351V324L391.5 189Z" stroke="#DD635A" stroke-opacity="0.25" stroke-linecap="round" stroke-linejoin="round"/>
<path d="M121.5 351L13.5 297V270L121.5 324V351Z" stroke="#DD635A" stroke-opacity="0.25" stroke-linecap="round" stroke-linejoin="round"/>
<path d="M283.5 94.5L391.5 148.5L121.5 283.5L13.5 229.5L283.5 94.5Z" stroke="#DD635A" stroke-opacity="0.25" stroke-linecap="round" stroke-linejoin="round"/>
<path d="M229.5 148.5L283.5 121.5L229.5 94.5L175.5 121.5L229.5 148.5Z" stroke="#DD635A" stroke-opacity="0.25" stroke-linecap="round" stroke-linejoin="round"/>
<path d="M148.5 189L202.5 162L148.5 135L94.5 162L148.5 189Z" stroke="#DD635A" stroke-opacity="0.25" stroke-linecap="round" stroke-linejoin="round"/>
<path d="M202.5 162L148.5 135V81L202.5 108V162Z" stroke="#DD635A" stroke-opacity="0.25" stroke-linecap="round" stroke-linejoin="round"/>
<path d="M283.5 121.5L229.5 94.5V40.5L283.5 67.5V121.5Z" stroke="#DD635A" stroke-opacity="0.25" stroke-linecap="round" stroke-linejoin="round"/>
<path d="M283.5 67.5L337.5 40.5L283.5 13.5L229.5 40.5L283.5 67.5Z" stroke="#DD635A" stroke-opacity="0.25" stroke-linecap="round" stroke-linejoin="round"/>
<path d="M202.5 108L256.5 81L202.5 54L148.5 81L202.5 108Z" stroke="#DD635A" stroke-opacity="0.25" stroke-linecap="round" stroke-linejoin="round"/>
<path d="M121.5 148.5L175.5 121.5L121.5 94.5L67.5 121.5L121.5 148.5Z" stroke="#DD635A" stroke-opacity="0.25" stroke-linecap="round" stroke-linejoin="round"/>
<path d="M175.5 121.5V175.5L202.5 162V108L256.5 81V135L283.5 121.5V67.5L337.5 40.5V148.5L121.5 256.5V148.5L175.5 121.5Z" stroke="#DD635A" stroke-opacity="0.25" stroke-linecap="round" stroke-linejoin="round"/>
<path d="M121.5 256.5L67.5 229.5V121.5L121.5 148.5V256.5Z" stroke="#DD635A" stroke-opacity="0.25" stroke-linecap="round" stroke-linejoin="round"/>
<circle cx="0.84375" cy="0.84375" r="0.84375" transform="matrix(-1 0 0 1 284.344 12.6562)" fill="#DD635A" fill-opacity="0.25"/>
<path d="M283.5 16.875V65.8125" stroke="#DD635A" stroke-opacity="0.25" stroke-linecap="round" stroke-linejoin="round"/>
<circle cx="0.84375" cy="0.84375" r="0.84375" transform="matrix(-1 0 0 1 284.344 66.6562)" fill="#DD635A" fill-opacity="0.25"/>
<circle cx="0.84375" cy="0.84375" r="0.84375" transform="matrix(-1 0 0 1 338.344 147.656)" fill="#DD635A" fill-opacity="0.25"/>
<path d="M334.496 146.998L285.002 122.242" stroke="#DD635A" stroke-opacity="0.25" stroke-linecap="round" stroke-linejoin="round"/>
<circle cx="0.84375" cy="0.84375" r="0.84375" transform="matrix(-1 0 0 1 284.344 120.656)" fill="#DD635A" fill-opacity="0.25"/>
<circle cx="0.84375" cy="0.84375" r="0.84375" transform="matrix(-1 0 0 1 68.3438 228.656)" fill="#DD635A" fill-opacity="0.25"/>
<path d="M70.5037 227.998L281.998 122.242" stroke="#DD635A" stroke-opacity="0.25" stroke-linecap="round" stroke-linejoin="round"/>
<circle cx="0.84375" cy="0.84375" r="0.84375" transform="matrix(-1 0 0 1 284.344 120.656)" fill="#DD635A" fill-opacity="0.25"/>
<circle cx="0.84375" cy="0.84375" r="0.84375" transform="matrix(-1 0 0 1 203.344 53.1562)" fill="#DD635A" fill-opacity="0.25"/>
<path d="M202.5 57.375V160.312" stroke="#DD635A" stroke-opacity="0.25" stroke-linecap="round" stroke-linejoin="round"/>
<circle cx="0.84375" cy="0.84375" r="0.84375" transform="matrix(-1 0 0 1 203.344 161.156)" fill="#DD635A" fill-opacity="0.25"/>
<circle cx="0.84375" cy="0.84375" r="0.84375" transform="matrix(-1 0 0 1 257.344 134.156)" fill="#DD635A" fill-opacity="0.25"/>
<path d="M253.496 133.498L204.002 108.742" stroke="#DD635A" stroke-opacity="0.25" stroke-linecap="round" stroke-linejoin="round"/>
<circle cx="0.84375" cy="0.84375" r="0.84375" transform="matrix(-1 0 0 1 203.344 107.156)" fill="#DD635A" fill-opacity="0.25"/>
<circle cx="0.84375" cy="0.84375" r="0.84375" transform="matrix(-1 0 0 1 284.344 120.656)" fill="#DD635A" fill-opacity="0.25"/>
<path d="M280.496 119.998L231.002 95.2425" stroke="#DD635A" stroke-opacity="0.25" stroke-linecap="round" stroke-linejoin="round"/>
<circle cx="0.84375" cy="0.84375" r="0.84375" transform="matrix(-1 0 0 1 230.344 93.6562)" fill="#DD635A" fill-opacity="0.25"/>
<circle cx="0.84375" cy="0.84375" r="0.84375" transform="matrix(-1 0 0 1 230.344 93.6562)" fill="#DD635A" fill-opacity="0.25"/>
<path d="M229.5 91.125V69.1875" stroke="#DD635A" stroke-opacity="0.25" stroke-linecap="round" stroke-linejoin="round"/>
<circle cx="0.84375" cy="0.84375" r="0.84375" transform="matrix(-1 0 0 1 230.344 66.6562)" fill="#DD635A" fill-opacity="0.25"/>
<circle cx="0.84375" cy="0.84375" r="0.84375" transform="matrix(-1 0 0 1 122.344 93.6562)" fill="#DD635A" fill-opacity="0.25"/>
<path d="M121.5 97.875V146.812" stroke="#DD635A" stroke-opacity="0.25" stroke-linecap="round" stroke-linejoin="round"/>
<circle cx="0.84375" cy="0.84375" r="0.84375" transform="matrix(-1 0 0 1 122.344 147.656)" fill="#DD635A" fill-opacity="0.25"/>
<circle cx="0.84375" cy="0.84375" r="0.84375" transform="matrix(-1 0 0 1 122.344 147.656)" fill="#DD635A" fill-opacity="0.25"/>
<path d="M124.504 150.002L173.998 174.758" stroke="#DD635A" stroke-opacity="0.25" stroke-linecap="round" stroke-linejoin="round"/>
<circle cx="0.84375" cy="0.84375" r="0.84375" transform="matrix(-1 0 0 1 176.344 174.656)" fill="#DD635A" fill-opacity="0.25"/>
<circle cx="0.84375" cy="0.84375" r="0.84375" transform="matrix(-1 0 0 1 176.344 147.656)" fill="#DD635A" fill-opacity="0.25"/>
<path d="M172.496 146.998L150.002 135.742" stroke="#DD635A" stroke-opacity="0.25" stroke-linecap="round" stroke-linejoin="round"/>
<circle cx="0.84375" cy="0.84375" r="0.84375" transform="matrix(-1 0 0 1 149.344 134.156)" fill="#DD635A" fill-opacity="0.25"/>
<path d="M391.5 148.5V175.5L121.5 310.5V283.5L391.5 148.5Z" stroke="#DD635A" stroke-opacity="0.25" stroke-linecap="round" stroke-linejoin="round"/>
<path d="M121.5 310.5L13.5 256.5V229.5L121.5 283.5V310.5Z" stroke="#DD635A" stroke-opacity="0.25" stroke-linecap="round" stroke-linejoin="round"/>
<circle cx="0.84375" cy="0.84375" r="0.84375" transform="matrix(-1 0 0 1 176.344 444.656)" fill="#DD635A" fill-opacity="0.25"/>
<path d="M172.496 443.998L123.002 419.242" stroke="#DD635A" stroke-opacity="0.25" stroke-linecap="round" stroke-linejoin="round"/>
<circle cx="0.84375" cy="0.84375" r="0.84375" transform="matrix(-1 0 0 1 122.344 417.656)" fill="#DD635A" fill-opacity="0.25"/>
<circle cx="0.84375" cy="0.84375" r="0.84375" transform="matrix(-1 0 0 1 122.344 417.656)" fill="#DD635A" fill-opacity="0.25"/>
<path d="M118.496 420.002L69.0017 444.757" stroke="#DD635A" stroke-opacity="0.25" stroke-linecap="round" stroke-linejoin="round"/>
<circle cx="0.84375" cy="0.84375" r="0.84375" transform="matrix(-1 0 0 1 68.3438 444.656)" fill="#DD635A" fill-opacity="0.25"/>
<circle cx="0.84375" cy="0.84375" r="0.84375" transform="matrix(-1 0 0 1 122.344 431.156)" fill="#DD635A" fill-opacity="0.25"/>
<path d="M124.504 433.502L146.998 444.757" stroke="#DD635A" stroke-opacity="0.25" stroke-linecap="round" stroke-linejoin="round"/>
<circle cx="0.84375" cy="0.84375" r="0.84375" transform="matrix(-1 0 0 1 149.344 444.656)" fill="#DD635A" fill-opacity="0.25"/>
<circle cx="0.84375" cy="0.84375" r="0.84375" transform="matrix(-1 0 0 1 149.344 444.656)" fill="#DD635A" fill-opacity="0.25"/>
<path d="M145.496 447.002L123.002 458.257" stroke="#DD635A" stroke-opacity="0.25" stroke-linecap="round" stroke-linejoin="round"/>
<circle cx="0.84375" cy="0.84375" r="0.84375" transform="matrix(-1 0 0 1 122.344 458.156)" fill="#DD635A" fill-opacity="0.25"/>
<circle cx="0.84375" cy="0.84375" r="0.84375" transform="matrix(-1 0 0 1 122.344 458.156)" fill="#DD635A" fill-opacity="0.25"/>
<path d="M118.496 457.498L96.0017 446.242" stroke="#DD635A" stroke-opacity="0.25" stroke-linecap="round" stroke-linejoin="round"/>
<circle cx="0.84375" cy="0.84375" r="0.84375" transform="matrix(-1 0 0 1 95.3438 444.656)" fill="#DD635A" fill-opacity="0.25"/>
<circle cx="0.84375" cy="0.84375" r="0.84375" transform="matrix(-1 0 0 1 95.3438 444.656)" fill="#DD635A" fill-opacity="0.25"/>
<path d="M97.5037 443.998L119.998 432.742" stroke="#DD635A" stroke-opacity="0.25" stroke-linecap="round" stroke-linejoin="round"/>
<circle cx="0.84375" cy="0.84375" r="0.84375" transform="matrix(-1 0 0 1 122.344 431.156)" fill="#DD635A" fill-opacity="0.25"/>
<path d="M283.5 16.875C281.636 16.875 280.125 15.364 280.125 13.5C280.125 11.636 281.636 10.125 283.5 10.125C285.364 10.125 286.875 11.636 286.875 13.5C286.875 15.364 285.364 16.875 283.5 16.875Z" fill="#DD635A" fill-opacity="0.25"/>
<path d="M337.5 43.875C335.636 43.875 334.125 42.364 334.125 40.5C334.125 38.636 335.636 37.125 337.5 37.125C339.364 37.125 340.875 38.636 340.875 40.5C340.875 42.364 339.364 43.875 337.5 43.875Z" fill="#DD635A" fill-opacity="0.25"/>
<path d="M283.5 70.875C281.636 70.875 280.125 69.364 280.125 67.5C280.125 65.636 281.636 64.125 283.5 64.125C285.364 64.125 286.875 65.636 286.875 67.5C286.875 69.364 285.364 70.875 283.5 70.875Z" fill="#DD635A" fill-opacity="0.25"/>
<path d="M229.5 43.875C227.636 43.875 226.125 42.364 226.125 40.5C226.125 38.636 227.636 37.125 229.5 37.125C231.364 37.125 232.875 38.636 232.875 40.5C232.875 42.364 231.364 43.875 229.5 43.875Z" fill="#DD635A" fill-opacity="0.25"/>
<path d="M202.5 57.375C200.636 57.375 199.125 55.864 199.125 54C199.125 52.136 200.636 50.625 202.5 50.625C204.364 50.625 205.875 52.136 205.875 54C205.875 55.864 204.364 57.375 202.5 57.375Z" fill="#DD635A" fill-opacity="0.25"/>
<path d="M256.5 84.375C254.636 84.375 253.125 82.864 253.125 81C253.125 79.136 254.636 77.625 256.5 77.625C258.364 77.625 259.875 79.136 259.875 81C259.875 82.864 258.364 84.375 256.5 84.375Z" fill="#DD635A" fill-opacity="0.25"/>
<path d="M202.5 111.375C200.636 111.375 199.125 109.864 199.125 108C199.125 106.136 200.636 104.625 202.5 104.625C204.364 104.625 205.875 106.136 205.875 108C205.875 109.864 204.364 111.375 202.5 111.375Z" fill="#DD635A" fill-opacity="0.25"/>
<path d="M148.5 84.375C146.636 84.375 145.125 82.864 145.125 81C145.125 79.136 146.636 77.625 148.5 77.625C150.364 77.625 151.875 79.136 151.875 81C151.875 82.864 150.364 84.375 148.5 84.375Z" fill="#DD635A" fill-opacity="0.25"/>
<path d="M121.5 97.875C119.636 97.875 118.125 96.364 118.125 94.5C118.125 92.636 119.636 91.125 121.5 91.125C123.364 91.125 124.875 92.636 124.875 94.5C124.875 96.364 123.364 97.875 121.5 97.875Z" fill="#DD635A" fill-opacity="0.25"/>
<path d="M175.5 124.875C173.636 124.875 172.125 123.364 172.125 121.5C172.125 119.636 173.636 118.125 175.5 118.125C177.364 118.125 178.875 119.636 178.875 121.5C178.875 123.364 177.364 124.875 175.5 124.875Z" fill="#DD635A" fill-opacity="0.25"/>
<path d="M121.5 151.875C119.636 151.875 118.125 150.364 118.125 148.5C118.125 146.636 119.636 145.125 121.5 145.125C123.364 145.125 124.875 146.636 124.875 148.5C124.875 150.364 123.364 151.875 121.5 151.875Z" fill="#DD635A" fill-opacity="0.25"/>
<path d="M67.5 124.875C65.636 124.875 64.125 123.364 64.125 121.5C64.125 119.636 65.636 118.125 67.5 118.125C69.364 118.125 70.875 119.636 70.875 121.5C70.875 123.364 69.364 124.875 67.5 124.875Z" fill="#DD635A" fill-opacity="0.25"/>
<path d="M67.5 232.875C65.636 232.875 64.125 231.364 64.125 229.5C64.125 227.636 65.636 226.125 67.5 226.125C69.364 226.125 70.875 227.636 70.875 229.5C70.875 231.364 69.364 232.875 67.5 232.875Z" fill="#DD635A" fill-opacity="0.25"/>
<path d="M121.5 259.875C119.636 259.875 118.125 258.364 118.125 256.5C118.125 254.636 119.636 253.125 121.5 253.125C123.364 253.125 124.875 254.636 124.875 256.5C124.875 258.364 123.364 259.875 121.5 259.875Z" fill="#DD635A" fill-opacity="0.25"/>
<path d="M175.5 178.875C173.636 178.875 172.125 177.364 172.125 175.5C172.125 173.636 173.636 172.125 175.5 172.125C177.364 172.125 178.875 173.636 178.875 175.5C178.875 177.364 177.364 178.875 175.5 178.875Z" fill="#DD635A" fill-opacity="0.25"/>
<path d="M202.5 165.375C200.636 165.375 199.125 163.864 199.125 162C199.125 160.136 200.636 158.625 202.5 158.625C204.364 158.625 205.875 160.136 205.875 162C205.875 163.864 204.364 165.375 202.5 165.375Z" fill="#DD635A" fill-opacity="0.25"/>
<path d="M256.5 138.375C254.636 138.375 253.125 136.864 253.125 135C253.125 133.136 254.636 131.625 256.5 131.625C258.364 131.625 259.875 133.136 259.875 135C259.875 136.864 258.364 138.375 256.5 138.375Z" fill="#DD635A" fill-opacity="0.25"/>
<path d="M283.5 124.875C281.636 124.875 280.125 123.364 280.125 121.5C280.125 119.636 281.636 118.125 283.5 118.125C285.364 118.125 286.875 119.636 286.875 121.5C286.875 123.364 285.364 124.875 283.5 124.875Z" fill="#DD635A" fill-opacity="0.25"/>
<path d="M337.5 151.875C335.636 151.875 334.125 150.364 334.125 148.5C334.125 146.636 335.636 145.125 337.5 145.125C339.364 145.125 340.875 146.636 340.875 148.5C340.875 150.364 339.364 151.875 337.5 151.875Z" fill="#DD635A" fill-opacity="0.25"/>
<path d="M391.5 151.875C389.636 151.875 388.125 150.364 388.125 148.5C388.125 146.636 389.636 145.125 391.5 145.125C393.364 145.125 394.875 146.636 394.875 148.5C394.875 150.364 393.364 151.875 391.5 151.875Z" fill="#DD635A" fill-opacity="0.25"/>
<path d="M391.5 178.875C389.636 178.875 388.125 177.364 388.125 175.5C388.125 173.636 389.636 172.125 391.5 172.125C393.364 172.125 394.875 173.636 394.875 175.5C394.875 177.364 393.364 178.875 391.5 178.875Z" fill="#DD635A" fill-opacity="0.25"/>
<path d="M391.5 192.375C389.636 192.375 388.125 190.864 388.125 189C388.125 187.136 389.636 185.625 391.5 185.625C393.364 185.625 394.875 187.136 394.875 189C394.875 190.864 393.364 192.375 391.5 192.375Z" fill="#DD635A" fill-opacity="0.25"/>
<path d="M391.5 219.375C389.636 219.375 388.125 217.864 388.125 216C388.125 214.136 389.636 212.625 391.5 212.625C393.364 212.625 394.875 214.136 394.875 216C394.875 217.864 393.364 219.375 391.5 219.375Z" fill="#DD635A" fill-opacity="0.25"/>
<path d="M391.5 232.875C389.636 232.875 388.125 231.364 388.125 229.5C388.125 227.636 389.636 226.125 391.5 226.125C393.364 226.125 394.875 227.636 394.875 229.5C394.875 231.364 393.364 232.875 391.5 232.875Z" fill="#DD635A" fill-opacity="0.25"/>
<path d="M391.5 259.875C389.636 259.875 388.125 258.364 388.125 256.5C388.125 254.636 389.636 253.125 391.5 253.125C393.364 253.125 394.875 254.636 394.875 256.5C394.875 258.364 393.364 259.875 391.5 259.875Z" fill="#DD635A" fill-opacity="0.25"/>
<path d="M121.5 286.875C119.636 286.875 118.125 285.364 118.125 283.5C118.125 281.636 119.636 280.125 121.5 280.125C123.364 280.125 124.875 281.636 124.875 283.5C124.875 285.364 123.364 286.875 121.5 286.875Z" fill="#DD635A" fill-opacity="0.25"/>
<path d="M121.5 313.875C119.636 313.875 118.125 312.364 118.125 310.5C118.125 308.636 119.636 307.125 121.5 307.125C123.364 307.125 124.875 308.636 124.875 310.5C124.875 312.364 123.364 313.875 121.5 313.875Z" fill="#DD635A" fill-opacity="0.25"/>
<path d="M121.5 327.375C119.636 327.375 118.125 325.864 118.125 324C118.125 322.136 119.636 320.625 121.5 320.625C123.364 320.625 124.875 322.136 124.875 324C124.875 325.864 123.364 327.375 121.5 327.375Z" fill="#DD635A" fill-opacity="0.25"/>
<path d="M121.5 354.375C119.636 354.375 118.125 352.864 118.125 351C118.125 349.136 119.636 347.625 121.5 347.625C123.364 347.625 124.875 349.136 124.875 351C124.875 352.864 123.364 354.375 121.5 354.375Z" fill="#DD635A" fill-opacity="0.25"/>
<path d="M121.5 367.875C119.636 367.875 118.125 366.364 118.125 364.5C118.125 362.636 119.636 361.125 121.5 361.125C123.364 361.125 124.875 362.636 124.875 364.5C124.875 366.364 123.364 367.875 121.5 367.875Z" fill="#DD635A" fill-opacity="0.25"/>
<path d="M121.5 394.875C119.636 394.875 118.125 393.364 118.125 391.5C118.125 389.636 119.636 388.125 121.5 388.125C123.364 388.125 124.875 389.636 124.875 391.5C124.875 393.364 123.364 394.875 121.5 394.875Z" fill="#DD635A" fill-opacity="0.25"/>
<path d="M13.5 340.875C11.636 340.875 10.125 339.364 10.125 337.5C10.125 335.636 11.636 334.125 13.5 334.125C15.364 334.125 16.875 335.636 16.875 337.5C16.875 339.364 15.364 340.875 13.5 340.875Z" fill="#DD635A" fill-opacity="0.25"/>
<path d="M13.5 313.875C11.636 313.875 10.125 312.364 10.125 310.5C10.125 308.636 11.636 307.125 13.5 307.125C15.364 307.125 16.875 308.636 16.875 310.5C16.875 312.364 15.364 313.875 13.5 313.875Z" fill="#DD635A" fill-opacity="0.25"/>
<path d="M13.5 300.375C11.636 300.375 10.125 298.864 10.125 297C10.125 295.136 11.636 293.625 13.5 293.625C15.364 293.625 16.875 295.136 16.875 297C16.875 298.864 15.364 300.375 13.5 300.375Z" fill="#DD635A" fill-opacity="0.25"/>
<path d="M13.5 273.375C11.636 273.375 10.125 271.864 10.125 270C10.125 268.136 11.636 266.625 13.5 266.625C15.364 266.625 16.875 268.136 16.875 270C16.875 271.864 15.364 273.375 13.5 273.375Z" fill="#DD635A" fill-opacity="0.25"/>
<path d="M13.5 259.875C11.636 259.875 10.125 258.364 10.125 256.5C10.125 254.636 11.636 253.125 13.5 253.125C15.364 253.125 16.875 254.636 16.875 256.5C16.875 258.364 15.364 259.875 13.5 259.875Z" fill="#DD635A" fill-opacity="0.25"/>
<path d="M13.5 232.875C11.636 232.875 10.125 231.364 10.125 229.5C10.125 227.636 11.636 226.125 13.5 226.125C15.364 226.125 16.875 227.636 16.875 229.5C16.875 231.364 15.364 232.875 13.5 232.875Z" fill="#DD635A" fill-opacity="0.25"/>
<path d="M67.5 448.875C65.636 448.875 64.125 447.364 64.125 445.5C64.125 443.636 65.636 442.125 67.5 442.125C69.364 442.125 70.875 443.636 70.875 445.5C70.875 447.364 69.364 448.875 67.5 448.875Z" fill="#DD635A" fill-opacity="0.25"/>
<path d="M121.5 475.875C119.636 475.875 118.125 474.364 118.125 472.5C118.125 470.636 119.636 469.125 121.5 469.125C123.364 469.125 124.875 470.636 124.875 472.5C124.875 474.364 123.364 475.875 121.5 475.875Z" fill="#DD635A" fill-opacity="0.25"/>
<path d="M175.5 448.875C173.636 448.875 172.125 447.364 172.125 445.5C172.125 443.636 173.636 442.125 175.5 442.125C177.364 442.125 178.875 443.636 178.875 445.5C178.875 447.364 177.364 448.875 175.5 448.875Z" fill="#DD635A" fill-opacity="0.25"/>
<circle cx="0.84375" cy="0.84375" r="0.84375" transform="matrix(-1 0 0 1 95.3438 444.656)" fill="#DD635A" fill-opacity="0.25"/>
<path d="M94.5 442.125V123.188" stroke="#DD635A" stroke-opacity="0.25" stroke-linecap="round" stroke-linejoin="round"/>
<circle cx="0.84375" cy="0.84375" r="0.84375" transform="matrix(-1 0 0 1 95.3438 120.656)" fill="#DD635A" fill-opacity="0.25"/>
<circle cx="0.84375" cy="0.84375" r="0.84375" transform="matrix(-1 0 0 1 95.3438 120.656)" fill="#DD635A" fill-opacity="0.25"/>
<path d="M97.5037 119.998L119.998 108.742" stroke="#DD635A" stroke-opacity="0.25" stroke-linecap="round" stroke-linejoin="round"/>
<circle cx="0.84375" cy="0.84375" r="0.84375" transform="matrix(-1 0 0 1 122.344 107.156)" fill="#DD635A" fill-opacity="0.25"/>
<circle cx="0.84375" cy="0.84375" r="0.84375" transform="matrix(-1 0 0 1 122.344 107.156)" fill="#DD635A" fill-opacity="0.25"/>
<path d="M124.504 109.502L146.998 120.758" stroke="#DD635A" stroke-opacity="0.25" stroke-linecap="round" stroke-linejoin="round"/>
<circle cx="0.84375" cy="0.84375" r="0.84375" transform="matrix(-1 0 0 1 149.344 120.656)" fill="#DD635A" fill-opacity="0.25"/>
<circle cx="0.84375" cy="0.84375" r="0.84375" transform="matrix(-1 0 0 1 149.344 120.656)" fill="#DD635A" fill-opacity="0.25"/>
<path d="M145.496 123.002L123.002 134.258" stroke="#DD635A" stroke-opacity="0.25" stroke-linecap="round" stroke-linejoin="round"/>
<circle cx="0.84375" cy="0.84375" r="0.84375" transform="matrix(-1 0 0 1 122.344 134.156)" fill="#DD635A" fill-opacity="0.25"/>
<circle cx="0.84375" cy="0.84375" r="0.84375" transform="matrix(-1 0 0 1 122.344 134.156)" fill="#DD635A" fill-opacity="0.25"/>
<path d="M118.496 133.498L96.0017 122.242" stroke="#DD635A" stroke-opacity="0.25" stroke-linecap="round" stroke-linejoin="round"/>
<circle cx="0.84375" cy="0.84375" r="0.84375" transform="matrix(-1 0 0 1 95.3438 120.656)" fill="#DD635A" fill-opacity="0.25"/>
<circle cx="0.84375" cy="0.84375" r="0.84375" transform="matrix(-1 0 0 1 149.344 120.656)" fill="#DD635A" fill-opacity="0.25"/>
<path d="M148.5 124.875V443.812" stroke="#DD635A" stroke-opacity="0.25" stroke-linecap="round" stroke-linejoin="round"/>
<circle cx="0.84375" cy="0.84375" r="0.84375" transform="matrix(-1 0 0 1 149.344 444.656)" fill="#DD635A" fill-opacity="0.25"/>
<circle cx="0.84375" cy="0.84375" r="0.84375" transform="matrix(-1 0 0 1 149.344 228.656)" fill="#DD635A" fill-opacity="0.25"/>
<path d="M145.496 231.002L123.002 242.257" stroke="#DD635A" stroke-opacity="0.25" stroke-linecap="round" stroke-linejoin="round"/>
<circle cx="0.84375" cy="0.84375" r="0.84375" transform="matrix(-1 0 0 1 122.344 242.156)" fill="#DD635A" fill-opacity="0.25"/>
<circle cx="0.84375" cy="0.84375" r="0.84375" transform="matrix(-1 0 0 1 122.344 242.156)" fill="#DD635A" fill-opacity="0.25"/>
<path d="M118.496 241.498L96.0017 230.243" stroke="#DD635A" stroke-opacity="0.25" stroke-linecap="round" stroke-linejoin="round"/>
<circle cx="0.84375" cy="0.84375" r="0.84375" transform="matrix(-1 0 0 1 95.3438 228.656)" fill="#DD635A" fill-opacity="0.25"/>
<circle cx="0.84375" cy="0.84375" r="0.84375" transform="matrix(-1 0 0 1 95.3438 228.656)" fill="#DD635A" fill-opacity="0.25"/>
<path d="M97.5037 227.998L119.998 216.742" stroke="#DD635A" stroke-opacity="0.25" stroke-linecap="round" stroke-linejoin="round"/>
<circle cx="0.84375" cy="0.84375" r="0.84375" transform="matrix(-1 0 0 1 122.344 215.156)" fill="#DD635A" fill-opacity="0.25"/>
<circle cx="0.84375" cy="0.84375" r="0.84375" transform="matrix(-1 0 0 1 122.344 215.156)" fill="#DD635A" fill-opacity="0.25"/>
<path d="M124.504 217.502L146.998 228.758" stroke="#DD635A" stroke-opacity="0.25" stroke-linecap="round" stroke-linejoin="round"/>
<circle cx="0.84375" cy="0.84375" r="0.84375" transform="matrix(-1 0 0 1 149.344 228.656)" fill="#DD635A" fill-opacity="0.25"/>
</g>
<defs>
<clipPath id="clip0_2083_449">
<rect width="405" height="486" fill="white" transform="matrix(-1 0 0 1 405 0)"/>
</clipPath>
</defs>
</svg>
