<svg viewBox="0 0 42 43" fill="none" xmlns="http://www.w3.org/2000/svg">
        <path
          d="M7.04428 21.2267C6.54088 20.7233 5.7247 20.7233 5.2213 21.2267C4.7179 21.7302 4.7179 22.5463 5.2213 23.0497L11.2368 29.0653C11.7402 29.5687 12.5564 29.5687 13.0598 29.0653C13.5632 28.5619 13.5632 27.7457 13.0598 27.2423L7.04428 21.2267Z"
          fill="white"></path>
        <path
          fill-rule="evenodd"
          clip-rule="evenodd"
          d="M30.6768 12.3079C31.1686 11.8161 31.1814 11.0226 30.706 10.515L30.7029 10.5117L30.6966 10.505L30.6749 10.4821C30.6565 10.4628 30.6303 10.4355 30.597 10.4011C30.5303 10.3323 30.4348 10.2349 30.3152 10.1165C30.0766 9.88039 29.7393 9.55728 29.3426 9.2081C28.5791 8.5361 27.4845 7.66726 26.4071 7.20426C25.5985 6.85677 24.6539 6.75349 23.7896 6.74648C22.9048 6.7393 21.9918 6.83331 21.1845 6.95512C20.373 7.07755 19.642 7.23216 19.1149 7.3557C18.8505 7.41766 18.6354 7.47227 18.4848 7.51187C18.4094 7.53168 18.35 7.54776 18.3085 7.55917L18.2599 7.57267L18.246 7.57657L18.2418 7.57777L18.2394 7.57846C18.0288 7.63865 17.837 7.75151 17.6821 7.90639L8.22906 17.3595C7.72567 17.8629 7.72567 18.6791 8.22907 19.1825L15.104 26.0574C15.6074 26.5608 16.4235 26.5608 16.9269 26.0574L19.0233 23.9611L30.1429 35.0807C31.8328 36.7707 34.5727 36.7707 36.2627 35.0807C37.9526 33.3908 37.9526 30.6509 36.2627 28.9609L25.1431 17.8414L30.6768 12.3079ZM10.9635 18.271L19.2604 9.97411C19.3794 9.94368 19.5289 9.90662 19.7032 9.86577C20.1835 9.7532 20.2041 9.61374 21.5691 9.50435C22.2982 9.39434 23.0665 9.31878 23.7686 9.32448C24.4912 9.33035 25.0391 9.42241 25.3893 9.5729C26.0696 9.86528 26.9087 10.5003 27.6393 11.1434C27.7415 11.2333 27.8394 11.3215 27.9322 11.4065L16.0155 23.323L10.9635 18.271ZM20.8463 22.1382L23.3201 19.6643L34.4397 30.7839C35.1228 31.467 35.1228 32.5746 34.4397 33.2577C33.7566 33.9409 32.649 33.9409 31.9659 33.2577L20.8463 22.1382Z"
          fill="white"></path>
  </svg>