<svg viewBox="0 0 42 44" fill="none" xmlns="http://www.w3.org/2000/svg">
        <path
          fill-rule="evenodd"
          clip-rule="evenodd"
          d="M14.1358 15.4371C13.5669 17.6659 11.5457 19.314 9.13957 19.314C6.2919 19.314 3.9834 17.0055 3.9834 14.1578C3.9834 11.3102 6.2919 9.00166 9.13957 9.00166C11.5457 9.00166 13.5669 10.6497 14.1358 12.8786C14.1882 12.8721 14.2416 12.8688 14.2957 12.8688L36.6392 12.8688C37.3511 12.8688 37.9282 13.4459 37.9282 14.1578C37.9282 14.8698 37.3511 15.4469 36.6392 15.4469L14.2957 15.4469C14.2416 15.4469 14.1882 15.4435 14.1358 15.4371ZM11.7177 14.1578C11.7177 15.5817 10.5634 16.7359 9.13957 16.7359C7.71573 16.7359 6.56148 15.5817 6.56148 14.1578C6.56148 12.734 7.71573 11.5797 9.13957 11.5797C10.5634 11.5797 11.7177 12.734 11.7177 14.1578Z"
          fill="white"></path>
        <path
          fill-rule="evenodd"
          clip-rule="evenodd"
          d="M38.3579 27.9076C38.3579 30.7553 36.0494 33.0638 33.2017 33.0638C30.7956 33.0638 28.7744 31.4157 28.2055 29.1868C28.1531 29.1933 28.0997 29.1967 28.0455 29.1967L5.70212 29.1967C4.9902 29.1967 4.41308 28.6195 4.41308 27.9076C4.41308 27.1957 4.9902 26.6186 5.70212 26.6186L28.0455 26.6186C28.0997 26.6186 28.1531 26.6219 28.2055 26.6284C28.7744 24.3995 30.7956 22.7515 33.2017 22.7515C36.0494 22.7515 38.3579 25.06 38.3579 27.9076ZM35.7798 27.9076C35.7798 29.3315 34.6255 30.4857 33.2017 30.4857C31.7779 30.4857 30.6236 29.3315 30.6236 27.9076C30.6236 26.4838 31.7779 25.3295 33.2017 25.3295C34.6255 25.3295 35.7798 26.4838 35.7798 27.9076Z"
          fill="white"></path>
</svg>